<?xml version="1.0" standalone="no"?>
<!DOCTYPE svg PUBLIC "-//W3C//DTD SVG 20010904//EN"
 "http://www.w3.org/TR/2001/REC-SVG-20010904/DTD/svg10.dtd">
<svg version="1.0" xmlns="http://www.w3.org/2000/svg"
 width="500.000000pt" height="500.000000pt" viewBox="0 0 500.000000 500.000000"
 preserveAspectRatio="xMidYMid meet">

<g transform="translate(0.000000,500.000000) scale(0.100000,-0.100000)"
fill="#000000" stroke="none">
<path d="M2000 2640 c0 -54 -10 -75 -24 -51 -19 30 -114 14 -145 -25 -43 -55
-38 -168 9 -216 36 -35 103 -39 143 -8 l26 20 6 -20 c5 -16 15 -20 46 -20 l39
0 0 190 0 190 -50 0 -50 0 0 -60z m-10 -129 c15 -29 12 -87 -6 -105 -40 -40
-91 5 -81 71 4 20 12 40 19 45 23 14 57 9 68 -11z"/>
<path d="M2210 2670 c0 -29 1 -30 50 -30 49 0 50 1 50 30 0 29 -1 30 -50 30
-49 0 -50 -1 -50 -30z"/>
<path d="M3830 2510 l0 -190 50 0 50 0 0 94 c0 101 9 120 52 114 22 -3 23 -7
26 -105 l3 -103 49 0 50 0 0 118 c0 113 -1 120 -25 142 -29 28 -92 31 -130 6
l-25 -16 0 65 0 65 -50 0 -50 0 0 -190z"/>
<path d="M890 2500 l0 -180 51 0 51 0 -4 119 c-1 66 0 114 3 108 4 -7 19 -61
35 -120 l29 -108 45 3 45 3 31 113 c18 62 33 115 35 117 2 2 2 -50 1 -116 l-4
-119 56 0 56 0 0 180 0 180 -79 0 -79 0 -22 -92 c-13 -51 -26 -97 -30 -101 -4
-5 -13 13 -19 40 -7 26 -19 72 -27 101 l-15 52 -80 0 -79 0 0 -180z"/>
<path d="M2610 2640 l0 -39 58 -3 57 -3 3 -137 3 -138 54 0 54 0 3 138 3 137
58 3 57 3 0 39 0 40 -175 0 -175 0 0 -40z"/>
<path d="M1528 2600 c-97 -18 -144 -109 -104 -205 22 -52 67 -75 149 -75 73 0
119 17 137 49 21 41 13 51 -40 51 -36 0 -50 -4 -50 -14 0 -16 -21 -26 -55 -26
-21 0 -55 32 -55 52 0 5 47 8 105 8 l105 0 0 35 c0 93 -81 145 -192 125z m80
-72 c26 -26 13 -38 -38 -38 -34 0 -50 4 -50 13 0 21 22 37 50 37 14 0 31 -5
38 -12z"/>
<path d="M3150 2600 c-79 -14 -113 -54 -113 -133 -1 -102 49 -147 165 -147 72
0 122 24 138 66 6 14 10 27 10 30 0 2 -21 4 -48 4 -35 0 -52 -5 -65 -20 -30
-36 -97 -21 -97 22 0 15 12 18 103 20 l102 3 -2 40 c-6 86 -87 135 -193 115z
m78 -72 c26 -26 13 -38 -38 -38 -34 0 -50 4 -50 13 0 21 22 37 50 37 14 0 31
-5 38 -12z"/>
<path d="M3540 2600 c-77 -14 -111 -52 -113 -127 -4 -103 46 -153 152 -153 67
0 111 17 135 52 29 41 21 58 -28 58 -30 0 -46 -5 -50 -15 -3 -8 -17 -20 -30
-27 -20 -9 -30 -8 -51 6 -22 14 -25 24 -25 71 0 49 3 57 25 67 30 13 75 -3 75
-27 0 -11 12 -15 50 -15 54 0 60 8 39 54 -20 43 -106 70 -179 56z"/>
<path d="M2210 2460 l0 -140 50 0 50 0 0 140 0 140 -50 0 -50 0 0 -140z"/>
</g>
</svg>
